<svg xmlns="http://www.w3.org/2000/svg" xmlns:xlink="http://www.w3.org/1999/xlink" version="1.1" width="256" height="256" viewBox="0 0 256 256" xml:space="preserve">

<defs>
</defs>
<g style="stroke: none; stroke-width: 0; stroke-dasharray: none; stroke-linecap: butt; stroke-linejoin: miter; stroke-miterlimit: 10; fill: none; fill-rule: nonzero; opacity: 1;" transform="translate(1.4065934065934016 1.4065934065934016) scale(2.81 2.81)" >
	<path d="M 72.684 34.695 c -0.173 0 -0.341 0.021 -0.513 0.026 v -3.119 c 0 -3.867 -3.146 -7.014 -7.014 -7.014 H 51.373 v -4.041 c 0 -5.503 -4.478 -9.981 -9.981 -9.981 H 30.779 c -5.504 0 -9.981 4.478 -9.981 9.981 v 4.041 H 7.014 C 3.146 24.588 0 27.735 0 31.602 v 20.409 V 72.42 c 0 3.867 3.146 7.014 7.014 7.014 h 58.144 c 3.867 0 7.014 -3.146 7.014 -7.014 v -3.119 c 0.172 0.005 0.34 0.026 0.513 0.026 C 82.231 69.327 90 61.559 90 52.011 S 82.231 34.695 72.684 34.695 z M 22.798 20.547 c 0 -4.401 3.581 -7.981 7.981 -7.981 h 10.612 c 4.401 0 7.981 3.58 7.981 7.981 v 4.041 h -4 v -4.041 c 0 -2.195 -1.786 -3.981 -3.981 -3.981 H 30.779 c -2.195 0 -3.981 1.786 -3.981 3.981 v 4.041 h -4 V 20.547 z M 28.798 24.588 v -4.041 c 0 -1.092 0.889 -1.981 1.981 -1.981 h 10.612 c 1.093 0 1.981 0.889 1.981 1.981 v 4.041 H 28.798 z M 2 31.602 c 0 -2.765 2.249 -5.014 5.014 -5.014 h 14.784 h 6 h 16.575 h 6 h 14.784 c 2.765 0 5.014 2.249 5.014 5.014 v 3.281 c -0.124 0.018 -0.243 0.049 -0.366 0.069 c -0.021 0.004 -0.043 0.007 -0.064 0.011 c -0.002 0 -0.003 0 -0.005 0 l -0.107 0.016 c -0.072 0.01 -0.146 0.021 -0.221 0.035 c -0.006 0.001 -0.011 0.003 -0.017 0.004 c -0.158 0.031 -0.315 0.066 -0.472 0.101 c -0.299 0.065 -0.591 0.144 -0.883 0.224 l -0.161 0.041 c -0.015 0.004 -0.028 0.01 -0.043 0.014 c -0.129 0.038 -0.26 0.07 -0.388 0.111 c -5.948 1.861 -10.409 6.778 -11.691 12.885 c -0.027 0.127 -0.048 0.256 -0.073 0.385 c -0.072 0.388 -0.133 0.778 -0.18 1.174 c -0.024 0.2 -0.043 0.4 -0.06 0.602 c -0.013 0.152 -0.037 0.301 -0.045 0.455 h -9.875 v -5.762 c 0 -0.552 -0.448 -1 -1 -1 H 27.649 c -0.552 0 -1 0.448 -1 1 v 5.762 H 2 V 31.602 z M 28.649 52.011 v -5.762 h 14.872 v 5.762 v 4.72 l -7.436 4.796 l -7.436 -4.796 V 52.011 z M 69.407 69.008 c 0.074 0.015 0.15 0.025 0.227 0.036 l 0.103 0.015 c 0.01 0.002 0.02 0.004 0.03 0.005 c 0.134 0.023 0.27 0.046 0.404 0.067 v 3.289 c 0 2.765 -2.249 5.014 -5.014 5.014 H 7.014 C 4.249 77.434 2 75.185 2 72.42 V 53.011 h 24.649 v 4.265 c 0 0.34 0.172 0.656 0.458 0.841 l 8.436 5.441 c 0.165 0.106 0.354 0.159 0.542 0.159 s 0.377 -0.053 0.542 -0.159 l 8.436 -5.441 c 0.286 -0.185 0.458 -0.501 0.458 -0.841 v -4.265 h 9.896 c 0.008 0.116 0.007 0.239 0.018 0.353 c 0 0.007 0.002 0.013 0.002 0.02 c 0.023 0.295 0.056 0.586 0.094 0.876 c 0.002 0.015 0.003 0.03 0.005 0.045 l 0.054 0.349 c 0.002 0.011 0.005 0.023 0.007 0.034 c 0.083 0.532 0.19 1.056 0.32 1.571 c 0.006 0.023 0.008 0.044 0.014 0.067 c 0.011 0.044 0.026 0.087 0.037 0.131 c 0.123 0.461 0.263 0.914 0.423 1.36 c 0.03 0.084 0.057 0.173 0.088 0.256 l 0.04 0.112 c 0.046 0.13 0.092 0.259 0.144 0.385 c 0.008 0.02 0.018 0.039 0.026 0.059 c 0.051 0.124 0.109 0.243 0.163 0.365 c 0.022 0.047 0.042 0.095 0.064 0.143 l 0.286 0.596 c 0.019 0.038 0.041 0.073 0.06 0.11 c 0.135 0.264 0.275 0.524 0.422 0.78 c 0.022 0.038 0.041 0.079 0.063 0.116 c 0.137 0.234 0.273 0.468 0.422 0.696 c 0.02 0.03 0.044 0.06 0.064 0.09 c 0.139 0.21 0.289 0.41 0.436 0.613 c 0.074 0.101 0.137 0.199 0.216 0.303 c 0.072 0.1 0.146 0.199 0.222 0.295 c 0.024 0.03 0.051 0.057 0.075 0.087 c 0.197 0.245 0.407 0.478 0.616 0.713 c 0.09 0.1 0.172 0.207 0.264 0.305 c 0.002 0.002 0.09 0.098 0.092 0.1 c 0.043 0.045 0.088 0.086 0.131 0.13 c 0.116 0.119 0.234 0.236 0.354 0.353 c 0.049 0.048 0.096 0.098 0.146 0.145 c 0.002 0.001 0.074 0.066 0.075 0.068 c 0.193 0.181 0.396 0.36 0.605 0.537 c 0.185 0.158 0.376 0.309 0.568 0.459 c 0.077 0.06 0.146 0.12 0.226 0.18 c 0.067 0.051 0.141 0.095 0.208 0.145 c 0.293 0.215 0.59 0.425 0.897 0.622 c 0.036 0.023 0.068 0.05 0.105 0.073 l 0.095 0.057 c 0.069 0.043 0.142 0.079 0.211 0.121 c 0.311 0.188 0.624 0.372 0.947 0.54 c 0.026 0.014 0.051 0.03 0.077 0.044 c 0.004 0.002 0.13 0.063 0.133 0.064 c 0.086 0.043 0.176 0.078 0.263 0.12 c 0.327 0.158 0.655 0.314 0.993 0.452 c 0.017 0.007 0.033 0.016 0.051 0.023 c 0.115 0.047 0.232 0.088 0.35 0.13 l 0.144 0.051 c 0.052 0.019 0.104 0.034 0.156 0.053 c 0.291 0.104 0.58 0.209 0.878 0.298 c 0.007 0.002 0.013 0.005 0.02 0.007 c 0.101 0.031 0.205 0.057 0.27 0.07 c 0.048 0.013 0.097 0.022 0.145 0.035 c 0.395 0.106 0.791 0.21 1.197 0.288 C 69.398 69.005 69.403 69.007 69.407 69.008 z M 72.684 67.327 c -0.479 0 -0.951 -0.029 -1.419 -0.072 c 0 0 -0.001 0 -0.001 0 c -0.401 -0.037 -0.793 -0.099 -1.185 -0.167 c -0.015 -0.002 -0.031 -0.005 -0.047 -0.006 c -0.083 -0.015 -0.169 -0.023 -0.252 -0.039 c -0.163 -0.031 -0.326 -0.069 -0.49 -0.108 c -0.32 -0.073 -0.637 -0.152 -0.949 -0.245 c -0.288 -0.085 -0.569 -0.186 -0.851 -0.289 c -0.183 -0.066 -0.369 -0.128 -0.548 -0.201 c -0.334 -0.136 -0.658 -0.288 -0.979 -0.448 c -0.103 -0.051 -0.208 -0.097 -0.31 -0.149 c -0.306 -0.159 -0.602 -0.332 -0.895 -0.511 c -0.101 -0.061 -0.203 -0.12 -0.302 -0.184 c -0.297 -0.191 -0.59 -0.397 -0.892 -0.621 c -0.086 -0.064 -0.173 -0.127 -0.258 -0.193 c -0.231 -0.179 -0.461 -0.37 -0.692 -0.571 c -0.186 -0.163 -0.371 -0.328 -0.549 -0.499 c -0.129 -0.124 -0.255 -0.25 -0.379 -0.378 c -0.113 -0.117 -0.218 -0.24 -0.328 -0.36 c -0.217 -0.238 -0.432 -0.479 -0.633 -0.731 c -0.141 -0.176 -0.272 -0.359 -0.405 -0.542 c -0.146 -0.197 -0.29 -0.394 -0.425 -0.597 c -0.165 -0.25 -0.317 -0.509 -0.467 -0.769 c -0.138 -0.24 -0.269 -0.482 -0.391 -0.722 c -0.113 -0.223 -0.223 -0.447 -0.326 -0.675 c -0.061 -0.13 -0.121 -0.26 -0.177 -0.393 c -0.083 -0.201 -0.151 -0.41 -0.226 -0.615 c -0.16 -0.443 -0.306 -0.904 -0.435 -1.399 c -0.008 -0.029 -0.015 -0.059 -0.023 -0.088 c -0.115 -0.454 -0.211 -0.927 -0.294 -1.473 l -0.029 -0.185 c -0.003 -0.019 -0.006 -0.038 -0.009 -0.056 c -0.036 -0.274 -0.067 -0.549 -0.09 -0.84 c -0.035 -0.393 -0.061 -0.786 -0.061 -1.188 c 0 -0.4 0.025 -0.795 0.062 -1.201 c 0.021 -0.278 0.053 -0.55 0.088 -0.824 c 0.005 -0.041 0.013 -0.08 0.018 -0.121 l 0.03 -0.193 c 0.081 -0.526 0.19 -1.046 0.325 -1.565 c 0.049 -0.186 0.088 -0.377 0.144 -0.56 c 0.041 -0.132 0.087 -0.261 0.134 -0.39 c 0.085 -0.254 0.178 -0.505 0.276 -0.753 c 0.09 -0.228 0.191 -0.464 0.31 -0.727 c 0.128 -0.281 0.258 -0.562 0.402 -0.834 c 0.057 -0.107 0.118 -0.214 0.18 -0.321 c 0.173 -0.306 0.354 -0.607 0.547 -0.9 c 0.151 -0.23 0.315 -0.452 0.481 -0.674 c 0.126 -0.171 0.248 -0.344 0.381 -0.509 c 0.107 -0.132 0.216 -0.261 0.327 -0.39 c 0.13 -0.151 0.266 -0.296 0.402 -0.442 c 0.25 -0.269 0.52 -0.54 0.818 -0.817 c 0.133 -0.123 0.265 -0.247 0.403 -0.366 c 0.201 -0.173 0.407 -0.34 0.619 -0.503 c 0.13 -0.101 0.263 -0.2 0.396 -0.297 c 0.211 -0.155 0.424 -0.306 0.643 -0.449 c 0.197 -0.128 0.4 -0.248 0.604 -0.367 c 0.311 -0.183 0.631 -0.355 0.956 -0.516 c 0.086 -0.043 0.173 -0.085 0.261 -0.126 c 0.312 -0.147 0.628 -0.286 0.951 -0.413 c 0.115 -0.045 0.232 -0.085 0.348 -0.127 c 0.308 -0.113 0.618 -0.221 0.933 -0.313 c 0.121 -0.035 0.245 -0.062 0.367 -0.095 c 0.332 -0.089 0.665 -0.175 1.004 -0.24 c 0.055 -0.011 0.113 -0.016 0.168 -0.026 l 0.093 -0.014 c 0.013 -0.002 0.026 -0.004 0.039 -0.006 c 0.391 -0.067 0.783 -0.13 1.185 -0.167 c 0.001 0 0.002 -0.001 0.003 -0.001 c 0.468 -0.043 0.94 -0.072 1.419 -0.072 C 81.129 36.695 88 43.565 88 52.011 S 81.129 67.327 72.684 67.327 z" style="stroke: none; stroke-width: 1; stroke-dasharray: none; stroke-linecap: butt; stroke-linejoin: miter; stroke-miterlimit: 10; fill: rgb(0,0,0); fill-rule: nonzero; opacity: 1;" transform=" matrix(1 0 0 1 0 0) " stroke-linecap="round" />
	<path d="M 73.684 51.562 v -9.268 c 0 -0.552 -0.447 -1 -1 -1 s -1 0.448 -1 1 v 9.717 c 0 0.286 0.122 0.558 0.336 0.748 l 6.639 5.896 c 0.19 0.169 0.428 0.252 0.664 0.252 c 0.275 0 0.55 -0.113 0.748 -0.336 c 0.366 -0.413 0.329 -1.045 -0.084 -1.412 L 73.684 51.562 z" style="stroke: none; stroke-width: 1; stroke-dasharray: none; stroke-linecap: butt; stroke-linejoin: miter; stroke-miterlimit: 10; fill: rgb(0,0,0); fill-rule: nonzero; opacity: 1;" transform=" matrix(1 0 0 1 0 0) " stroke-linecap="round" />
</g>
</svg>