<svg xmlns="http://www.w3.org/2000/svg" shape-rendering="geometricPrecision" text-rendering="geometricPrecision" image-rendering="optimizeQuality" fill-rule="evenodd" clip-rule="evenodd" viewBox="0 0 512 498.93"><path d="M389.76 0c33.74 0 64.31 13.69 86.42 35.8C498.31 57.92 512 88.5 512 122.24c0 33.75-13.69 64.33-35.8 86.44-22.13 22.12-52.7 35.82-86.44 35.82-33.71 0-64.27-13.68-86.4-35.82-22.19-22.2-35.86-52.76-35.86-86.44 0-33.74 13.69-64.32 35.82-86.44C325.43 13.69 356.01 0 389.76 0zM127.13 93.07 45.4 179.44h81.73V93.07zM0 195.82c0-1.15.15-2.27.41-3.35.13-3.14 1.36-6.27 3.69-8.73L128.47 52.32c2.31-4.18 6.78-7.01 11.9-7.01h113.41c-4.87 8.6-8.97 17.7-12.16 27.2h-87.3v120.52c0 7.5-6.09 13.59-13.59 13.59H27.2v265.11h392.02V275.68c9.4-1.8 18.49-4.44 27.21-7.83V471.9c0 7.39-3.05 14.15-7.93 19.05-4.96 4.94-11.72 7.98-19.11 7.98H27.04c-7.43 0-14.21-3.06-19.09-7.94C3.07 486.1 0 479.32 0 471.9V195.82zm324.89 79.39c7.53 0 13.66 6.05 13.66 13.52s-6.13 13.52-13.66 13.52H121.54c-7.54 0-13.66-6.05-13.66-13.52s6.12-13.52 13.66-13.52h203.35zm0 91.23c7.53 0 13.66 6.05 13.66 13.52s-6.13 13.52-13.66 13.52H121.54c-7.54 0-13.66-6.05-13.66-13.52s6.12-13.52 13.66-13.52h203.35zM437.6 110.4c3.83.15 6.55 1.43 8.12 3.82 4.28 6.39-1.55 12.7-5.59 17.15l-43.06 43.78c-4.65 4.58-10.02 4.64-14.67 0l-44.11-44.98c-3.78-4.26-8.45-10.07-4.51-15.95 1.6-2.39 4.3-3.67 8.13-3.82h21.23V77.39c0-6.28 5.18-11.49 11.51-11.49h30.19c6.34 0 11.52 5.17 11.52 11.49v33.01h21.24z"/></svg>