<?xml version="1.0" encoding="iso-8859-1"?>
<!-- Uploaded to: SVG Repo, www.svgrepo.com, Generator: SVG Repo Mixer Tools -->
<svg fill="#000000" height="800px" width="800px" version="1.1" id="Layer_1" xmlns="http://www.w3.org/2000/svg" xmlns:xlink="http://www.w3.org/1999/xlink" 
	 viewBox="0 0 512 512" xml:space="preserve">
<g>
	<g>
		<path d="M235.563,19.333H10.199C4.566,19.333,0,23.899,0,29.532v452.936c0,5.633,4.566,10.199,10.199,10.199h225.364
			c5.633,0,10.199-4.566,10.199-10.199V29.532C245.762,23.899,241.196,19.333,235.563,19.333z M225.364,472.269H20.398v-76.817
			h204.965V472.269z M225.364,375.053H20.398v-39.809h176.499c5.633,0,10.199-4.566,10.199-10.199
			c0-5.633-4.566-10.199-10.199-10.199H20.398v-38.704h176.499c5.633,0,10.199-4.566,10.199-10.199s-4.566-10.199-10.199-10.199
			H20.398v-38.705h176.499c5.633,0,10.199-4.566,10.199-10.199s-4.566-10.199-10.199-10.199H20.398v-38.704h176.499
			c5.633,0,10.199-4.566,10.199-10.199c0-5.633-4.566-10.199-10.199-10.199H20.398V98.833h176.499
			c5.633,0,10.199-4.566,10.199-10.199c0-5.633-4.566-10.199-10.199-10.199H20.398V39.731h204.965V375.053z"/>
	</g>
</g>
<g>
	<g>
		<path d="M84.216,407.09c-14.761,0-26.77,12.009-26.77,26.771c0,14.76,12.009,26.77,26.77,26.77c14.761,0,26.77-12.009,26.77-26.77
			C110.986,419.1,98.977,407.09,84.216,407.09z M84.216,440.232c-3.514,0-6.371-2.858-6.371-6.371c0-3.514,2.858-6.372,6.371-6.372
			c3.514,0,6.371,2.859,6.371,6.372S87.729,440.232,84.216,440.232z"/>
	</g>
</g>
<g>
	<g>
		<path d="M161.546,407.09c-14.761,0-26.77,12.009-26.77,26.771c0,14.76,12.009,26.77,26.77,26.77s26.77-12.009,26.77-26.77
			C188.316,419.1,176.307,407.09,161.546,407.09z M161.546,440.232c-3.514,0-6.371-2.858-6.371-6.371
			c0-3.514,2.858-6.372,6.371-6.372s6.371,2.859,6.371,6.372S165.06,440.232,161.546,440.232z"/>
	</g>
</g>
<g>
	<g>
		<path d="M501.801,19.333H276.437c-5.632,0-10.199,4.566-10.199,10.199v452.936c0,5.633,4.567,10.199,10.199,10.199h225.364
			c5.632,0,10.199-4.566,10.199-10.199V29.532C512,23.899,507.433,19.333,501.801,19.333z M491.602,472.269H286.636v-76.817h204.965
			V472.269z M491.602,375.053H286.636v-39.809h176.499c5.632,0,10.199-4.566,10.199-10.199c0-5.633-4.567-10.199-10.199-10.199
			H286.636v-38.704h176.499c5.632,0,10.199-4.566,10.199-10.199s-4.567-10.199-10.199-10.199H286.636v-38.705h176.499
			c5.632,0,10.199-4.566,10.199-10.199s-4.567-10.199-10.199-10.199H286.636v-38.704h176.499c5.632,0,10.199-4.566,10.199-10.199
			c0-5.633-4.567-10.199-10.199-10.199H286.636V98.833h176.499c5.632,0,10.199-4.566,10.199-10.199
			c0-5.633-4.567-10.199-10.199-10.199H286.636V39.731h204.965V375.053z"/>
	</g>
</g>
<g>
	<g>
		<path d="M429.386,439.586h-6.12c-5.632,0-10.199,4.566-10.199,10.199c0,5.633,4.567,10.199,10.199,10.199h6.12
			c5.632,0,10.199-4.566,10.199-10.199C439.586,444.152,435.018,439.586,429.386,439.586z"/>
	</g>
</g>
<g>
	<g>
		<path d="M386.55,439.586h-75.474c-5.632,0-10.199,4.566-10.199,10.199c0,5.633,4.567,10.199,10.199,10.199h75.474
			c5.632,0,10.199-4.566,10.199-10.199C396.749,444.152,392.182,439.586,386.55,439.586z"/>
	</g>
</g>
</svg>